<?xml version="1.0" encoding="utf-8"?>
<!-- Generator: Adobe Illustrator 22.1.0, SVG Export Plug-In . SVG Version: 6.00 Build 0)  -->
<svg version="1.1" id="Layer_1" xmlns="http://www.w3.org/2000/svg" xmlns:xlink="http://www.w3.org/1999/xlink" x="0px" y="0px"
	 viewBox="0 0 1078.3 220.7" style="enable-background:new 0 0 1078.3 220.7;" xml:space="preserve">
<g>
	<path d="M394,129.3V44.6h15.8v83.1c0,21.3,12.1,30.4,32.8,30.4c19.8,0,31.8-9.1,31.8-30.4V44.6h15.8v84.7
		c0,30.3-21.2,42.4-48.1,42.4C414.7,171.7,394,159.6,394,129.3z"/>
	<path d="M557.3,77.2c-13.1,0-22.3,5.6-29.1,14.9h-0.4V79.3h-14.2l0,119.5h14.2v-39.7h0.4c7.5,9.6,16.3,13.3,28.6,13.3
		c24.6,0,39.5-18.5,39.5-47.6C596.3,94.7,580.3,77.2,557.3,77.2z M555.7,160.4c-20.9,0-28.8-15.9-28.8-35.5c0-19.6,9.2-35.7,29-35.7
		c17.2,0,25.8,15.4,25.8,35.7C581.7,145.4,573.1,160.5,555.7,160.4z"/>
	<path d="M611.4,107.1c0-36.8,22.1-65.3,59.5-65.3c29.3,0,47,16.8,50.4,39.9h-15.5c-3-15.6-15.4-26.3-35.3-26.3
		c-27.6,0-43,22.2-43,51.6c0,30.6,17,51.3,43.2,51.3c23.7,0,34.9-16.1,36.5-34.5h15.6c-0.2,12.4-6.2,26.4-15.1,35.2
		c-8.8,8.6-21.6,13.1-37.6,13.1C634.5,172.2,611.4,145.1,611.4,107.1L611.4,107.1z"/>
	<rect x="741.7" y="44.6" width="14.2" height="125.1"/>
	<path d="M817,77c-27.1,0-43.9,21.3-43.9,47.6c0,26.2,16.8,47.6,43.9,47.6c27.2,0,43.7-21.3,43.7-47.6S844.2,77,817,77z M817,160.3
		c-19.3,0-29.3-15.7-29.3-35.7s10-35.9,29.3-35.9s29.1,15.9,29.1,35.9C846.1,144.5,836.3,160.3,817,160.3z"/>
	<path d="M935.3,169.7v-12.4h-0.4c-6.5,8.8-14.2,14.5-27.4,14.5c-18.6,0-30.5-11.2-30.5-29.9V79.3h14.2v62.3
		c0,11.7,7.5,18.6,20.4,18.6c14.4,0,23.7-10.8,23.7-25.2V79.3h14.2v90.5L935.3,169.7L935.3,169.7z"/>
	<path d="M1035.3,44.6v47.5h-0.3c-6.3-9.5-17-15.1-28.4-14.9c-22.4,0-39.8,17.5-39.8,47.6c0.1,29,15.5,47.6,40.1,47.5
		c12.8,0,21.3-4.8,28.1-13.6h0.3v11h14.2V44.6H1035.3z M1007.6,160.4c-17.4,0-26.2-15-26.2-35.5c0-20.3,8.8-35.7,26-35.7
		c18.8,0,29,14.7,29,35.7C1036.4,145.4,1027.8,160.5,1007.6,160.4z"/>
	<path d="M319.6,120.5c13.7,0,24.7,11.1,24.7,24.7c0,13.6-11.1,24.7-24.7,24.7H142.8v-64.2h11.6v52.7h165.3
		c7.3,0,13.2-5.9,13.2-13.2S327,132,319.7,132H165.9v-11.5H319.6L319.6,120.5z"/>
	<path d="M205.6,44.7h-62.8v26.4h11.6V56.2h51.2c7.3,0,13.2,5.9,13.2,13.2c0,7.3-5.9,13.2-13.2,13.2H53.5
		c-13.7,0-24.7,11.1-24.7,24.7S39.9,132,53.5,132h77.7v-11.5H53.5c-7.3,0-13.2-5.9-13.2-13.2c0-7.3,5.9-13.2,13.2-13.2h152.1
		c13.7,0,24.7-11.1,24.7-24.7S219.2,44.7,205.6,44.7L205.6,44.7z"/>
</g>
</svg>
