<?xml version="1.0" encoding="utf-8"?>
<!-- Generator: Adobe Illustrator 22.1.0, SVG Export Plug-In . SVG Version: 6.00 Build 0)  -->
<svg version="1.1" id="Layer_1" xmlns="http://www.w3.org/2000/svg" xmlns:xlink="http://www.w3.org/1999/xlink" x="0px" y="0px"
	 viewBox="0 0 136.3 96.7" style="enable-background:new 0 0 136.3 96.7;" xml:space="preserve">
<style type="text/css">
	.st0{fill:#7B00FF;}
</style>
<g>
	<path class="st0" d="M114.4,35.2c4.8,0,8.7,4,8.7,8.7s-4,8.7-8.7,8.7H52.3V30h4.1v18.5h58.1c2.5,0,4.6-2.1,4.6-4.6
		s-2.2-4.6-4.8-4.6h-54v-4.1H114.4L114.4,35.2z"/>
	<path class="st0" d="M74.3,8.6h-22v9.2h4.1v-5.2h18c2.5,0,4.6,2.1,4.6,4.6s-2.2,4.7-4.7,4.7H21c-4.8,0-8.7,4-8.7,8.7s4,8.7,8.7,8.7
		h27.2v-4.1H21c-2.5,0-4.6-2.1-4.6-4.6S18.4,26,21,26h53.4c4.8,0,8.7-4,8.7-8.7S79.1,8.6,74.3,8.6L74.3,8.6z"/>
</g>
<g>
	<path d="M22.9,81.3V69.7H25V81c0,2.9,1.7,4.2,4.5,4.2c2.7,0,4.3-1.2,4.3-4.2V69.7H36v11.6c0,4.1-2.9,5.8-6.6,5.8
		C25.7,87,22.9,85.4,22.9,81.3z"/>
	<g>
		<path d="M45.2,74.1c-1.8,0-3,0.8-4,2h-0.1v-1.7h-1.9v16.3h1.9v-5.4h0.1c1,1.3,2.2,1.8,3.9,1.8c3.4,0,5.4-2.5,5.4-6.5
			C50.5,76.5,48.3,74.1,45.2,74.1z M45,85.5c-2.9,0-3.9-2.2-3.9-4.9c0-2.7,1.3-4.9,4-4.9c2.4,0,3.5,2.1,3.5,4.9
			C48.5,83.5,47.3,85.5,45,85.5z"/>
	</g>
	<path d="M52.6,78.2c0-5,3-8.9,8.1-8.9c4,0,6.4,2.3,6.9,5.5h-2.1c-0.4-2.1-2.1-3.6-4.8-3.6c-3.8,0-5.9,3-5.9,7.1c0,4.2,2.3,7,5.9,7
		c3.2,0,4.8-2.2,5-4.7h2.1c0,1.7-0.8,3.6-2.1,4.8c-1.2,1.2-3,1.8-5.1,1.8C55.7,87.1,52.6,83.4,52.6,78.2L52.6,78.2z"/>
	<rect x="70.4" y="69.7" width="1.9" height="17.1"/>
	<g>
		<path d="M80.7,74.1c-3.7,0-6,2.9-6,6.5c0,3.6,2.3,6.5,6,6.5c3.7,0,6-2.9,6-6.5S84.4,74.1,80.7,74.1z M80.7,85.5
			c-2.6,0-4-2.1-4-4.9s1.4-4.9,4-4.9c2.6,0,4,2.2,4,4.9C84.7,83.3,83.3,85.5,80.7,85.5z"/>
	</g>
	<path d="M96.9,86.8v-1.7h-0.1c-0.9,1.2-1.9,2-3.7,2c-2.5,0-4.2-1.5-4.2-4.1v-8.6h1.9v8.5c0,1.6,1,2.5,2.8,2.5c2,0,3.2-1.5,3.2-3.4
		v-7.6h1.9v12.4L96.9,86.8L96.9,86.8z"/>
	<g>
		<path d="M110.5,69.7v6.5h0c-0.9-1.3-2.3-2.1-3.9-2c-3.1,0-5.4,2.4-5.4,6.5c0,4,2.1,6.5,5.5,6.5c1.7,0,2.9-0.7,3.8-1.9h0v1.5h1.9
			V69.7H110.5z M106.7,85.5c-2.4,0-3.6-2.1-3.6-4.9c0-2.8,1.2-4.9,3.6-4.9c2.6,0,4,2,4,4.9C110.7,83.5,109.5,85.5,106.7,85.5z"/>
	</g>
</g>
</svg>
