<?xml version="1.0" encoding="utf-8"?>
<!-- Generator: Adobe Illustrator 22.1.0, SVG Export Plug-In . SVG Version: 6.00 Build 0)  -->
<svg version="1.1" id="Layer_1" xmlns="http://www.w3.org/2000/svg" xmlns:xlink="http://www.w3.org/1999/xlink" x="0px" y="0px"
	 viewBox="0 0 136.3 96.7" style="enable-background:new 0 0 136.3 96.7;" xml:space="preserve">
<style type="text/css">
	.st0{fill:#7B00FF;}
</style>
<g>
	<path class="st0" d="M114.9,52.9c4.8,0,8.7,4,8.7,8.7c0,4.7-4,8.7-8.7,8.7H52.8V47.7h4.1v18.5H115c2.5,0,4.6-2.1,4.6-4.6
		s-2.2-4.6-4.8-4.6h-54v-4.1H114.9L114.9,52.9z"/>
	<path class="st0" d="M74.8,26.3h-22v9.2h4.1v-5.2h18c2.5,0,4.6,2.1,4.6,4.6c0,2.5-2.2,4.8-4.7,4.8H21.5c-4.8,0-8.7,4-8.7,8.7
		s4,8.7,8.7,8.7h27.2v-4.1H21.5c-2.5,0-4.6-2.1-4.6-4.6s2.1-4.6,4.6-4.6h53.4c4.8,0,8.7-4,8.7-8.7S79.6,26.3,74.8,26.3L74.8,26.3z"
		/>
</g>
</svg>
