<svg id="Blue_313" data-name="Blue 313" xmlns="http://www.w3.org/2000/svg" viewBox="0 0 236.54 72"><defs><style>.cls-1{fill:#008fbe;}</style></defs><title>Arm-logo-blue-pms313</title><path class="cls-1" d="M636.75,361.78h15.85v6.31A21,21,0,0,1,669.44,360a20,20,0,0,1,17.64,10c5.66-8.09,14.24-10,20.22-10,8.25,0,15.53,3.88,19.42,10.68,1.29,2.27,3.56,7.28,3.56,17.15V429.9H714.42V392.36c0-7.6-.81-10.68-1.46-12.13-1-2.59-3.4-6-9.06-6a11.72,11.72,0,0,0-9.39,5c-2.75,3.88-3.07,9.71-3.07,15.53V429.9H675.58V392.36c0-7.6-.81-10.68-1.46-12.13-1-2.59-3.4-6-9.06-6a11.71,11.71,0,0,0-9.38,5c-2.75,3.88-3.08,9.71-3.08,15.53V429.9H636.75Zm-54.9,0h15.86v6.15a27.45,27.45,0,0,1,6.63-5.66,18.31,18.31,0,0,1,9.71-2.27,23.52,23.52,0,0,1,12.46,3.24L620,377.64a14.36,14.36,0,0,0-8.09-2.43c-3.4,0-6.8.48-9.87,3.72-4.37,4.69-4.37,11.16-4.37,15.69V429.9H581.86Zm-71.95,34.3c0,11.81,7.44,21.68,18.93,21.68,10,0,19.25-7.28,19.25-21.52,0-14.89-9.22-22-19.25-22-11.49,0-18.93,9.71-18.93,21.84m37.21-34.3H563V429.9H547.12v-7.12A26.16,26.16,0,0,1,526.74,432c-21,0-33-17.47-33-36.24,0-22.17,15.21-35.76,33.17-35.76a24.83,24.83,0,0,1,20.23,9.71Z" transform="translate(-493.73 -360)"/></svg>