<svg xmlns="http://www.w3.org/2000/svg" width="2500" height="942" viewBox="0 0 302.939 114.146"><path fill="none" d="M.55 113.532h301.44V.616H.55"/><path fill="none" d="M.55.616h301.44v112.916H.55"/><path fill="none" d="M.55.616h301.44v112.916H.55"/><path fill="none" d="M0 0h301.99v113.531H0"/><path fill="#26559a" d="M.55.616h302.39v113.531H.55"/><path fill="none" d="M0 0h301.99v113.531H0"/><path d="M159.726 56.925c-2.029 0-3.49.664-4.973 1.34v15.31c1.422.139 2.231.139 3.582.139 4.869 0 5.535-2.229 5.535-5.336v-7.314c0-2.295-.762-4.139-4.144-4.139m-32.329-.836c-3.378 0-4.146 1.852-4.146 4.145v1.287h8.292v-1.287c-.001-2.294-.772-4.145-4.146-4.145M64.771 72.026c0 1.812.856 2.755 2.748 2.755 2.03 0 3.23-.66 4.712-1.341v-3.629h-4.438c-2.1.001-3.022.389-3.022 2.215m126.404-15.101c-3.383 0-4.555 1.844-4.555 4.137v8.379c0 2.302 1.172 4.148 4.555 4.148 3.373 0 4.555-1.848 4.555-4.148v-8.379c-.001-2.293-1.182-4.137-4.555-4.137M48.191 81.417h-9.942V57.38h-4.972v-8.285h4.972v-4.973c0-6.758 2.806-10.777 10.774-10.777h6.638v8.285h-4.146c-3.104 0-3.31 1.158-3.31 3.318l-.014 4.146h7.518l-.88 8.285h-6.638v24.038zm33.989.062h-8.288l-.356-2.094c-3.786 2.094-7.164 2.434-9.392 2.434-6.08 0-9.314-4.055-9.314-9.663 0-6.615 3.774-8.978 10.528-8.978h6.874v-1.43c0-3.379-.388-4.369-5.588-4.369H58.14l.832-8.285h9.294c11.412 0 13.914 3.603 13.914 12.721v19.664zm28.184-23.491c-5.157-.884-6.639-1.078-9.119-1.078-4.458 0-5.806.983-5.806 4.762v7.152c0 3.78 1.348 4.766 5.806 4.766 2.48 0 3.962-.195 9.119-1.082v8.078c-4.519 1.014-7.461 1.279-9.947 1.279-10.679 0-14.92-5.607-14.92-13.709v-5.804c0-8.106 4.241-13.725 14.92-13.725 2.486 0 5.43.269 9.947 1.282v8.079zm31.121 10.168H123.25v.668c0 3.78 1.348 4.766 5.804 4.766 4.008 0 6.452-.195 11.6-1.082v8.078c-4.964 1.014-7.55 1.279-12.424 1.279-10.678 0-14.924-5.607-14.924-13.709V61.52c0-7.086 3.152-12.893 14.092-12.893 10.942 0 14.088 5.738 14.088 12.893l-.001 6.636zm32.328.152c0 7.83-2.24 13.541-15.813 13.541-4.898 0-7.777-.432-13.188-1.264V35.832l9.941-1.655V49.83c2.147-.798 4.93-1.202 7.461-1.202 9.944 0 11.6 4.453 11.6 11.604v8.076zm31.87.171c0 6.754-2.793 13.306-14.475 13.306-11.689 0-14.533-6.552-14.533-13.306v-6.521c0-6.756 2.844-13.309 14.533-13.309 11.682 0 14.475 6.553 14.475 13.309v6.521zm31.843 0c0 6.754-2.795 13.306-14.473 13.306-11.689 0-14.535-6.552-14.535-13.306v-6.521c0-6.756 2.846-13.309 14.535-13.309 11.678 0 14.473 6.553 14.473 13.309v6.521zm32.686 12.938h-10.779l-9.113-15.191v15.191h-9.942V35.832l9.942-1.655v29.346l9.113-14.428h10.779l-9.951 15.744 9.951 16.578zm-47.193-24.492c-3.377 0-4.549 1.844-4.549 4.137v8.379c0 2.302 1.172 4.148 4.549 4.148 3.373 0 4.566-1.848 4.566-4.148v-8.379c0-2.293-1.193-4.137-4.566-4.137M275.888 75.749c1.674 0 3.008 1.363 3.008 3.065 0 1.729-1.334 3.078-3.022 3.078-1.675 0-3.037-1.35-3.037-3.078 0-1.702 1.362-3.065 3.037-3.065h.014zm-.016.477c-1.347 0-2.451 1.158-2.451 2.59 0 1.457 1.104 2.603 2.467 2.603 1.361.014 2.451-1.146 2.451-2.59 0-1.443-1.09-2.603-2.451-2.603h-.016zm-.572 4.375h-.543v-3.422c.285-.041.557-.08.965-.08.52 0 .859.107 1.064.258.204.151.311.382.311.709 0 .449-.297.722-.664.832v.027c.299.055.504.324.57.828.082.533.164.738.219.848h-.572c-.082-.108-.166-.424-.231-.871-.082-.438-.299-.602-.738-.602h-.38v1.473zm0-1.895h.396c.447 0 .83-.164.83-.586 0-.302-.219-.601-.83-.601-.178 0-.303.015-.396.027v1.16z" fill="#fff"/></svg>