<?xml version="1.0" encoding="UTF-8" standalone="no"?>
<!-- Created with Inkscape (http://www.inkscape.org/) -->

<svg
   xmlns:dc="http://purl.org/dc/elements/1.1/"
   xmlns:cc="http://creativecommons.org/ns#"
   xmlns:rdf="http://www.w3.org/1999/02/22-rdf-syntax-ns#"
   xmlns:svg="http://www.w3.org/2000/svg"
   xmlns="http://www.w3.org/2000/svg"
   xmlns:sodipodi="http://sodipodi.sourceforge.net/DTD/sodipodi-0.dtd"
   xmlns:inkscape="http://www.inkscape.org/namespaces/inkscape"
   version="1.1"
   id="svg2"
   xml:space="preserve"
   width="15cm"
   height="4.5000038cm"
   viewBox="0 0 566.92915 170.07888"
   sodipodi:docname="flowchain.svg"
   inkscape:version="0.92.3 (2405546, 2018-03-11)"><metadata
     id="metadata8"><rdf:RDF><cc:Work
         rdf:about=""><dc:format>image/svg+xml</dc:format><dc:type
           rdf:resource="http://purl.org/dc/dcmitype/StillImage" /><dc:title></dc:title></cc:Work></rdf:RDF></metadata><defs
     id="defs6"><clipPath
       clipPathUnits="userSpaceOnUse"
       id="clipPath36"><path
         d="M 0,1080 H 1920 V 0 H 0 Z"
         id="path34"
         inkscape:connector-curvature="0" /></clipPath></defs><sodipodi:namedview
     pagecolor="#ffffff"
     bordercolor="#666666"
     borderopacity="1"
     objecttolerance="10"
     gridtolerance="10"
     guidetolerance="10"
     inkscape:pageopacity="0"
     inkscape:pageshadow="2"
     inkscape:window-width="1366"
     inkscape:window-height="740"
     id="namedview4"
     showgrid="false"
     fit-margin-top="0"
     fit-margin-left="0"
     fit-margin-right="0"
     fit-margin-bottom="0"
     units="cm"
     inkscape:zoom="0.29453125"
     inkscape:cx="368.32972"
     inkscape:cy="448.97326"
     inkscape:window-x="0"
     inkscape:window-y="0"
     inkscape:window-maximized="1"
     inkscape:current-layer="g10" /><g
     id="g10"
     inkscape:groupmode="layer"
     inkscape:label="Flowchain_vi_RGB"
     transform="matrix(1.3333333,0,0,-1.3333333,-295.5053,520.89653)"><g
       id="g625"
       transform="matrix(0.63138412,0,0,0.63138412,81.695961,96.98772)"><g
         transform="translate(359.81898,418.68724)"
         id="g276"><path
           inkscape:connector-curvature="0"
           id="path278"
           style="fill:#ff7500;fill-opacity:1;fill-rule:nonzero;stroke:none"
           d="m 0,0 v -46.968 c 0,-5.136 -1.556,-9.257 -4.623,-12.248 -5.034,-4.91 -12.314,-4.89 -12.913,-4.88 -8.353,0.006 -14.531,4.022 -20.505,7.906 -5.757,3.742 -11.194,7.276 -18.403,7.276 -13.47,0 -13.624,-13.068 -13.624,-13.625 v -46.967 c 3.355,-0.866 5.839,-3.904 5.839,-7.53 0,-4.3 -3.486,-7.786 -7.786,-7.786 -4.299,0 -7.786,3.486 -7.786,7.786 0,3.626 2.484,6.664 5.84,7.53 v 46.967 c 0,0.178 0.024,4.401 2.151,8.656 2.022,4.043 6.329,8.862 15.366,8.862 8.362,0 14.545,-4.019 20.524,-7.906 5.757,-3.742 11.194,-7.276 18.402,-7.276 l 0.049,-10e-4 c 0.055,0.005 6.202,-0.075 10.149,3.795 2.274,2.23 3.427,5.407 3.427,9.441 V 0 c -3.356,0.865 -5.838,3.903 -5.838,7.53 0,4.3 3.485,7.785 7.785,7.785 4.3,0 7.785,-3.485 7.785,-7.785 C 5.839,3.903 3.356,0.865 0,0 m -37.176,46.457 c -55.789,0 -101.014,-45.227 -101.014,-101.016 0,-55.789 45.225,-101.015 101.014,-101.015 55.79,0 101.016,45.226 101.016,101.015 0,55.789 -45.226,101.016 -101.016,101.016" /></g><g
         transform="translate(553.65498,338.26054)"
         id="g280"><path
           inkscape:connector-curvature="0"
           id="path282"
           style="fill:#ff7500;fill-opacity:1;fill-rule:nonzero;stroke:none"
           d="m 0,0 c -8.655,0 -15.147,6.962 -15.147,16.276 0,9.314 6.492,16.087 15.147,16.087 8.75,0 15.053,-6.867 15.053,-16.275 C 15.053,6.867 8.655,0 0,0 m 0.094,39.984 c -14.018,0 -23.802,-9.879 -23.802,-23.708 0,-14.018 9.69,-23.896 23.708,-23.896 13.924,0 23.708,9.878 23.708,23.708 0,13.924 -9.784,23.896 -23.614,23.896" /></g><g
         transform="translate(644.62958,377.58574)"
         id="g284"><path
           inkscape:connector-curvature="0"
           id="path286"
           style="fill:#ff7500;fill-opacity:1;fill-rule:nonzero;stroke:none"
           d="m 0,0 c -1.882,0 -4.14,-1.129 -4.798,-4.985 l -6.962,-31.518 -8.373,27.19 c -0.659,2.257 -2.259,3.292 -5.645,3.292 -3.481,0 -5.08,-1.035 -5.739,-3.292 l -8.655,-27.378 -7.057,31.706 C -47.981,-1.129 -50.145,0 -52.12,0 c -2.729,0 -5.739,-2.164 -5.551,-2.728 l 11.289,-40.548 c 0.658,-2.258 2.353,-3.011 5.739,-3.011 3.669,0 4.798,0.847 5.645,3.293 l 9.032,27.377 8.749,-27.377 c 0.847,-2.54 1.882,-3.293 5.739,-3.293 3.387,0 5.081,0.753 5.645,3.011 L 5.362,-2.728 C 5.456,-2.258 2.729,0 0,0" /></g><g
         transform="translate(683.29458,370.43634)"
         id="g288"><path
           inkscape:connector-curvature="0"
           id="path290"
           style="fill:#ff7500;fill-opacity:1;fill-rule:nonzero;stroke:none"
           d="m 0,0 c 7.715,0 11.572,-3.857 13.643,-8.844 0.281,-0.47 5.549,0.282 5.549,4.14 0,4.233 -5.926,12.513 -19.379,12.513 -13.548,0 -23.521,-9.973 -23.521,-23.708 0,-13.924 9.879,-23.897 23.521,-23.897 13.359,0 19.379,8.278 19.379,12.418 0,4.046 -5.268,4.704 -5.549,4.233 C 11.572,-28.13 7.621,-31.987 0,-31.987 c -8.561,0 -14.864,6.773 -14.864,16.088 C -14.864,-6.68 -8.467,0 0,0" /></g><g
         transform="translate(739.83558,378.24494)"
         id="g292"><path
           inkscape:connector-curvature="0"
           id="path294"
           style="fill:#ff7500;fill-opacity:1;fill-rule:nonzero;stroke:none"
           d="m 0,0 c -7.056,0 -11.948,-3.481 -14.959,-8.279 v 18.534 c 0,6.491 -3.104,7.996 -5.927,7.996 -1.882,0 -3.386,-0.753 -3.386,-1.035 v -59.553 c 0,-3.387 1.693,-4.421 4.139,-4.421 h 1.035 c 2.352,0 4.139,1.034 4.139,4.421 v 20.887 c 0,8.184 4.986,13.264 12.701,13.264 6.492,0 10.444,-4.609 10.444,-12.418 v -21.733 c 0,-3.387 1.693,-4.421 4.139,-4.421 h 1.034 c 2.353,0 4.14,1.034 4.14,4.421 v 22.769 C 17.499,-8.279 11.948,0 0,0" /></g><g
         transform="translate(802.02118,349.73804)"
         id="g296"><path
           inkscape:connector-curvature="0"
           id="path298"
           style="fill:#ff7500;fill-opacity:1;fill-rule:nonzero;stroke:none"
           d="m 0,0 c 0,-7.149 -5.833,-12.23 -13.924,-12.23 -5.362,0 -8.561,2.54 -8.561,6.585 0,6.116 6.774,8.562 19.945,9.032 L 0,3.481 Z m -10.537,28.507 c -12.795,0 -19.381,-6.492 -19.381,-10.82 0,-4.515 5.739,-4.61 5.739,-4.515 2.07,4.139 6.116,7.714 12.984,7.714 C -3.951,20.886 0,17.123 0,10.255 V 9.313 H -1.223 C -21.639,8.938 -31.611,4.422 -31.611,-6.021 c 0,-7.714 5.739,-12.889 15.429,-12.889 6.962,0 12.889,3.011 16.276,7.903 0.094,-5.551 2.446,-7.339 5.739,-7.339 1.693,0 3.387,0.565 3.387,1.035 v 27.754 c 0,11.478 -6.962,18.064 -19.757,18.064" /></g><g
         transform="translate(832.12568,397.24884)"
         id="g300"><path
           inkscape:connector-curvature="0"
           id="path302"
           style="fill:#ff7500;fill-opacity:1;fill-rule:nonzero;stroke:none"
           d="m 0,0 c -3.575,0 -5.645,-1.882 -5.645,-5.269 0,-3.293 2.07,-5.173 5.551,-5.173 3.575,0 5.551,1.787 5.551,5.173 C 5.457,-1.882 3.481,0 0,0" /></g><g
         transform="translate(832.50258,377.58574)"
         id="g304"><path
           inkscape:connector-curvature="0"
           id="path306"
           style="fill:#ff7500;fill-opacity:1;fill-rule:nonzero;stroke:none"
           d="m 0,0 h -0.941 c -2.447,0 -4.234,-1.129 -4.234,-4.516 v -37.162 c 0,-3.386 1.787,-4.421 4.234,-4.421 H 0 c 2.445,0 4.14,1.035 4.14,4.421 V -4.516 C 4.14,-1.034 2.445,0 0,0" /></g><g
         transform="translate(877.56608,378.24494)"
         id="g308"><path
           inkscape:connector-curvature="0"
           id="path310"
           style="fill:#ff7500;fill-opacity:1;fill-rule:nonzero;stroke:none"
           d="m 0,0 c -6.868,0 -11.948,-3.293 -15.053,-7.997 -0.282,5.927 -3.104,7.338 -5.833,7.338 -1.882,0 -3.386,-0.752 -3.386,-1.034 v -40.644 c 0,-3.387 1.693,-4.421 4.139,-4.421 h 1.034 c 2.353,0 4.14,1.034 4.14,4.421 v 26.249 c 2.258,4.704 6.773,7.902 12.701,7.902 6.586,0 10.444,-4.704 10.444,-12.324 v -21.827 c 0,-3.387 1.693,-4.421 4.138,-4.421 h 1.035 c 2.352,0 4.14,1.034 4.14,4.421 v 22.956 C 17.499,-8.186 11.948,0 0,0" /></g><g
         transform="translate(493.63738,392.73224)"
         id="g312"><path
           inkscape:connector-curvature="0"
           id="path314"
           style="fill:#ff7500;fill-opacity:1;fill-rule:nonzero;stroke:none"
           d="m 0,0 h -6.203 v 0.001 h -30.963 c -3.105,0 -5.174,-2.164 -5.174,-5.457 v -50.709 c 0,-3.293 1.411,-5.081 4.045,-5.081 h 1.505 c 2.823,0 4.234,1.506 4.234,4.422 v 20.698 h 0.007 v 3.425 h 24.304 c 3.01,0 4.516,1.316 4.516,3.951 v 0.376 c 0,2.446 -1.413,3.857 -4.516,3.857 H -32.744 V -8.561 H -6.39 v -10e-4 c 0.011,0 0.021,10e-4 0.033,10e-4 h 0.154 v 0.005 c 5.795,0.063 7.154,2.792 7.154,5.443 C 0.951,-1.47 0.26,0 0,0" /></g><g
         transform="translate(510.09638,396.49584)"
         id="g316"><path
           inkscape:connector-curvature="0"
           id="path318"
           style="fill:#ff7500;fill-opacity:1;fill-rule:nonzero;stroke:none"
           d="m 0,0 c -1.787,0 -3.387,-0.752 -3.387,-1.035 v -6.951 -52.602 c 0,-3.387 1.787,-4.422 4.234,-4.422 h 0.941 c 2.445,0 4.139,1.035 4.139,4.422 v 52.592 0.01 C 5.924,-1.503 2.915,0 0,0" /></g></g></g></svg>