<?xml version="1.0" encoding="UTF-8" standalone="no"?>
<!-- Created with Inkscape (http://www.inkscape.org/) -->

<svg
   xmlns:dc="http://purl.org/dc/elements/1.1/"
   xmlns:cc="http://creativecommons.org/ns#"
   xmlns:rdf="http://www.w3.org/1999/02/22-rdf-syntax-ns#"
   xmlns:svg="http://www.w3.org/2000/svg"
   xmlns="http://www.w3.org/2000/svg"
   xmlns:sodipodi="http://sodipodi.sourceforge.net/DTD/sodipodi-0.dtd"
   xmlns:inkscape="http://www.inkscape.org/namespaces/inkscape"
   width="100mm"
   height="72.114571mm"
   viewBox="0 0 100 72.114571"
   version="1.1"
   id="svg1800"
   inkscape:version="0.92.3 (2405546, 2018-03-11)"
   sodipodi:docname="sph2019.svg">
  <defs
     id="defs1794" />
  <sodipodi:namedview
     id="base"
     pagecolor="#ffffff"
     bordercolor="#666666"
     borderopacity="1.0"
     inkscape:pageopacity="0.0"
     inkscape:pageshadow="2"
     inkscape:zoom="0.98994949"
     inkscape:cx="97.248732"
     inkscape:cy="38.277607"
     inkscape:document-units="mm"
     inkscape:current-layer="layer1"
     showgrid="false"
     inkscape:window-width="1366"
     inkscape:window-height="740"
     inkscape:window-x="0"
     inkscape:window-y="0"
     inkscape:window-maximized="1"
     fit-margin-top="0"
     fit-margin-left="0"
     fit-margin-right="0"
     fit-margin-bottom="0" />
  <metadata
     id="metadata1797">
    <rdf:RDF>
      <cc:Work
         rdf:about="">
        <dc:format>image/svg+xml</dc:format>
        <dc:type
           rdf:resource="http://purl.org/dc/dcmitype/StillImage" />
        <dc:title></dc:title>
      </cc:Work>
    </rdf:RDF>
  </metadata>
  <g
     inkscape:label="Layer 1"
     inkscape:groupmode="layer"
     id="layer1"
     transform="translate(-53.973004,-78.878898)">
    <g
       transform="matrix(1.1325413,0,0,-1.1325413,-106.10873,312.84142)"
       id="g1774">
      <path
         inkscape:connector-curvature="0"
         id="path270"
         style="fill:#2056ae;fill-opacity:1;fill-rule:nonzero;stroke:none"
         d="m 229.64437,142.90689 h -88.297 v 63.675 h 88.297 z" />
      <path
         d="m 148.87987,161.30769 c 0,2.412 0.004,5.56 0.004,7.319 6.346,-2.394 14.827,-3.508 14.827,0.02 0,4.692 -15.376,0.926 -15.606,11.619 -0.124,5.777 4.796,9.062 8.629,10.012 3.676,0.908 10,0.69 14.041,-1.217 v -7.223 c -4.793,3.006 -13.567,2.63 -13.567,-0.227 0,-3.767 17.601,-1.509 17.601,-10.675 0,-2.409 -0.577,-4.278 -1.462,-5.875 -4.583,-8.257 -21.68,-4.485 -24.467,-3.753"
         style="fill:#ffffff;fill-opacity:1;fill-rule:nonzero;stroke:none"
         id="path274"
         inkscape:connector-curvature="0" />
      <path
         d="m 198.80077,164.61139 c -1.151,-1.48 -2.66,-2.822 -4.469,-3.685 -0.534,-0.253 -1.093,-0.449 -1.673,-0.608 v -0.011 l 9.413,-0.004 0.007,12.459 c -0.16,-1.385 -0.423,-2.235 -0.707,-3.172 -0.562,-1.837 -1.418,-3.5 -2.571,-4.979"
         style="fill:#ffffff;fill-opacity:1;fill-rule:nonzero;stroke:none"
         id="path278"
         inkscape:connector-curvature="0" />
      <path
         d="m 212.64547,190.93659 c -5.85,0 -8.762,-2.749 -10.604,-4.757 v 14.403 h -9.382 v -10.231 c 0.818,-0.256 1.632,-0.586 2.439,-0.998 2.071,-1.07 3.776,-2.728 5.109,-4.983 0.899,-1.517 1.584,-4.122 1.877,-6.247 1.196,1.927 2.993,4.912 6.436,4.912 3.883,0 4.328,-4.25 4.328,-5.662 0,-0.351 -0.029,-17.063 -0.029,-17.063 h 9.579 v 18.168 c 0,7.958 -2.668,12.458 -9.753,12.458"
         style="fill:#ffffff;fill-opacity:1;fill-rule:nonzero;stroke:none"
         id="path282"
         inkscape:connector-curvature="0" />
      <path
         d="m 200.56937,183.68269 c 0.332,-0.715 0.624,-1.561 0.868,-2.448 -0.223,0.887 -0.514,1.711 -0.868,2.448"
         style="fill:#ffffff;fill-opacity:1;fill-rule:nonzero;stroke:none"
         id="path286"
         inkscape:connector-curvature="0" />
      <path
         d="m 193.20217,190.15729 c 0.166,-0.062 0.334,-0.117 0.502,-0.184 -0.168,0.067 -0.336,0.122 -0.502,0.184"
         style="fill:#ffffff;fill-opacity:1;fill-rule:nonzero;stroke:none"
         id="path290"
         inkscape:connector-curvature="0" />
      <path
         d="m 190.71967,169.39069 c -1.104,-1.393 -2.975,-2.029 -4.617,-2.096 -2.559,-0.093 -5.592,1.7 -5.961,1.887 v 11.834 c 0.696,0.604 3.055,2.226 5.621,2.088 0.948,-0.045 4.094,-0.238 5.771,-3.147 0.54,-0.937 1.01,-2.577 1.125,-4.158 v 14.529 c -1.284,0.396 -2.58,0.619 -3.89,0.619 -2.169,0 -5.283,-0.161 -8.627,-3.724 v 3.735 h -9.497 v -43.572 h 9.497 v 14.658 c 1.102,-0.679 2.214,-1.225 3.325,-1.631 1.114,-0.406 2.639,-0.607 4.575,-0.607 1.697,0 3.222,0.144 4.617,0.521 v 14.127 c -0.134,-2.106 -0.935,-3.796 -1.939,-5.063"
         style="fill:#ffffff;fill-opacity:1;fill-rule:nonzero;stroke:none"
         id="path294"
         inkscape:connector-curvature="0" />
      <path
         d="m 193.11817,160.46099 c -0.115,-0.034 -0.23,-0.073 -0.35,-0.109 0.12,0.036 0.235,0.075 0.35,0.109"
         style="fill:#ffffff;fill-opacity:1;fill-rule:nonzero;stroke:none"
         id="path298"
         inkscape:connector-curvature="0" />
      <path
         d="m 202.08497,178.12309 c -0.137,0.986 -0.359,2.076 -0.646,3.111 -0.246,0.889 -0.538,1.734 -0.87,2.449 -0.117,0.242 -0.235,0.479 -0.361,0.687 -1.334,2.256 -3.038,3.913 -5.109,4.982 -0.462,0.235 -0.928,0.439 -1.395,0.622 -0.168,0.066 -0.336,0.122 -0.502,0.183 -0.182,0.063 -0.362,0.138 -0.543,0.195 v -30.034 c 0.037,0.008 0.072,0.026 0.11,0.034 0.119,0.036 0.234,0.075 0.349,0.109 0.416,0.135 0.824,0.28 1.214,0.466 1.809,0.862 3.317,2.204 4.469,3.684 1.153,1.48 2.009,3.142 2.571,4.98 0.284,0.935 0.547,1.786 0.707,3.172 0.101,0.87 0.161,1.947 0.161,3.394 0,0.557 -0.054,1.234 -0.155,1.966"
         style="fill:#cbd1ed;fill-opacity:1;fill-rule:nonzero;stroke:none"
         id="path302"
         inkscape:connector-curvature="0" />
    </g>
  </g>
</svg>
